# xmcd
#
# Track frame offsets:
# 150
# 18896
# 35144
# 59572
# 75394
# 93230
# 113570
# 147354
# 163820
# 188088
# 209655
# 226339
# 251335
# 282031
#
# Disc length: 4340 seconds
#
# Revision: 0
# Processed by: cddbd v1.4PL0 Copyright (c) Steve Scherf et al.
# Submitted via: Audion 3.0.2 (http://www.panic.com/audion/)
#
DISCID=ba10f20e
DTITLE=Royksopp - Melody A.M.
DYEAR=1900
DGENRE=
TTITLE0=So Easy
TTITLE1=Eple
TTITLE2=Sparks
TTITLE3=In Space
TTITLE4=Poor Leno
TTITLE5=A Higher Place
TTITLE6=Royksopp's Night Out
TTITLE7=Remind Me
TTITLE8=She's So...
TTITLE9=40 Years Back/Come
TTITLE10=Remind Me (Someone Else) BONUS
TTITLE11=Poor Leno (Royksopp's Mix) BONUS
TTITLE12=Remind Me (Ernest St Laurent Mix) BONUS
TTITLE13=Poor Leno (Silicone Soul Hypnotic House Mix) BONUS
EXTD=
EXTT0=
EXTT1=
EXTT2=
EXTT3=
EXTT4=
EXTT5=
EXTT6=
EXTT7=
EXTT8=
EXTT9=
EXTT10=
EXTT11=
EXTT12=
EXTT13=
PLAYORDER=
